GRFsquat.mot
version=1
nRows=13
nColumns=37
inDegrees=yes
endheader
time	ground_force_calcn_l_vx	ground_force_calcn_l_vy	ground_force_calcn_l_vz	ground_force_calcn_l_px	ground_force_calcn_l_py	ground_force_calcn_l_pz	ground_torque_calcn_l_vx	ground_torque_calcn_l_vy	ground_torque_calcn_l_vz	ground_force_calcn_r_vx	ground_force_calcn_r_vy	ground_force_calcn_r_vz	ground_force_calcn_r_px	ground_force_calcn_r_py	ground_force_calcn_r_pz	ground_torque_calcn_r_vx	ground_torque_calcn_r_vy	ground_torque_calcn_r_vz	ground_force_hand_l_vx	ground_force_hand_l_vy	ground_force_hand_l_vz	ground_force_hand_l_px	ground_force_hand_l_py	ground_force_hand_l_pz	ground_torque_hand_l_vx	ground_torque_hand_l_vy	ground_torque_hand_l_vz	ground_force_hand_r_vx	ground_force_hand_r_vy	ground_force_hand_r_vz	ground_force_hand_r_px	ground_force_hand_r_py	ground_force_hand_r_pz	ground_torque_hand_r_vx	ground_torque_hand_r_vy	ground_torque_hand_r_vz
        0      17.08612      433.9038      51.06378      1.031254 -6.310057e-17    -0.4708196             0    0.06332544             0     -9.603142      347.2442     -51.70656      1.078841 -6.591949e-17  0.0005128945             0    0.05072646             0             0             0             0      1.135052     0.7522744    -0.4881195             0             0             0             0             0             0      1.129883     0.7679529    0.00176044             0             0             0
0.0166566      16.50099      444.3237      48.67813      1.033575 -6.331741e-17    -0.4699479             0      0.135689             0     -2.160991      342.5917     -47.94456      1.069979 -6.591949e-17  -0.003752714             0    0.09104023             0             0             0             0      1.138499     0.7533437    -0.4913781             0             0             0             0             0             0      1.132213     0.7699797    0.00163964             0             0             0
0.0333232      15.83472      455.2579       47.0246      1.035697 -6.331741e-17    -0.4692898             0     0.2004969             0      4.686747       337.005     -44.17771      1.063356 -6.505213e-17  -0.007188776             0     0.1272241             0             0             0             0      1.141901     0.7543323    -0.4944302             0             0             0             0             0             0      1.134586     0.7718268    0.00180108             0             0             0
0.0499898      15.12271      466.7565       46.5741      1.037535 -6.353425e-17    -0.4689019             0     0.2515836             0       10.5021      329.8918     -40.39939      1.058505 -6.505213e-17  -0.009840808             0     0.1554716             0             0             0             0      1.145135     0.7552651    -0.4972521             0             0             0             0             0             0      1.137166     0.7733707    0.00225005             0             0             0
0.0666564      14.54452      478.1314      47.37774       1.03904 -6.353425e-17    -0.4687776             0     0.2852136             0      15.09122      321.2434     -36.62777      1.054956 -6.418477e-17   -0.01183255             0     0.1728145             0             0             0             0      1.148103       0.75621    -0.4998723             0             0             0             0             0             0      1.140051     0.7745776    0.00294591             0             0             0
 0.083323      14.37869      487.9405      49.06083      1.040206 -6.375109e-17    -0.4688747             0     0.3003232             0      18.49965      311.6997     -32.94274      1.052365 -6.418477e-17   -0.01327935             0     0.1774479             0             0             0             0      1.150764     0.7572352    -0.5023516             0             0             0             0             0             0      1.143244      0.775474    0.00381448             0             0             0
0.0999896      14.89352      494.3113      50.96942      1.041086 -6.375109e-17    -0.4691477             0     0.2981949             0      20.93268       302.386     -29.50819      1.050538 -6.418477e-17   -0.01425406             0     0.1689999             0             0             0             0      1.153142     0.7583652    -0.5047662             0             0             0             0             0             0      1.146677     0.7760999    0.00476873             0             0             0
0.1166562      16.22893      495.4949       52.4023      1.041793  -6.38053e-17    -0.4695621             0     0.2818271             0      22.64877      294.5693     -26.55819      1.049424 -6.418477e-17   -0.01478949             0     0.1486717             0             0             0             0      1.155329     0.7595581    -0.5071901             0             0             0             0             0             0       1.15027     0.7764725    0.00573446             0             0             0
0.1333228      18.32535      490.4208      52.83378      1.042487 -6.385951e-17    -0.4700896             0     0.2551941             0      23.87213      289.2727     -24.34917      1.049064 -6.418477e-17   -0.01490493             0     0.1191118             0             0             0             0      1.157465     0.7607147    -0.5096729             0             0             0             0             0             0      1.153998     0.7765816    0.00666761             0             0             0
0.1499894      20.92626       479.029      52.04796      1.043336 -6.385951e-17    -0.4706895             0     0.2225047             0       24.7484      286.9965      -23.0979      1.049471 -6.418477e-17   -0.01464146             0    0.08396306             0             0             0             0      1.159713     0.7617234    -0.5122227             0             0             0             0             0             0       1.15793     0.7764176    0.00755334             0             0             0
 0.166656      23.64496      462.2724      50.15112      1.044427 -6.396793e-17    -0.4712958             0     0.1875629             0      25.34176      287.6357     -22.92652      1.050514 -6.418477e-17   -0.01408228             0    0.04718433             0             0             0             0      1.162247     0.7625165    -0.5147949             0             0             0             0             0             0      1.162234     0.7760147    0.00838594             0             0             0
0.1833226      26.06187      441.8341      47.47974      1.045716 -6.396793e-17     -0.471819             0     0.1533368             0      25.65806      290.5864     -23.82741      1.051907 -6.418477e-17    -0.0133386             0    0.01236956             0             0             0             0      1.165235     0.7631106    -0.5172943             0             0             0             0             0             0      1.167152     0.7754794    0.00914162             0             0             0
0.1999892      27.81586      419.7035      44.45708      1.047061 -6.418477e-17    -0.4721679             0     0.1217958             0      25.67605      294.9685     -25.65492      1.053327 -6.418477e-17   -0.01251021             0    -0.0177395             0             0             0             0      1.168841     0.7636026    -0.5195895             0             0             0             0             0             0      1.172956     0.7749828    0.00975349             0             0             0
